<svg width="17" height="13" viewBox="0 0 17 13" fill="none" xmlns="http://www.w3.org/2000/svg">
<circle cx="6.5" cy="6.5" r="6.5" fill="#C4C4C4"/>
<path d="M7.03125 10H5.61523V4.7168H7.03125V10ZM5.53223 3.34961C5.53223 3.13802 5.60221 2.96387 5.74219 2.82715C5.88542 2.69043 6.0791 2.62207 6.32324 2.62207C6.56413 2.62207 6.75618 2.69043 6.89941 2.82715C7.04264 2.96387 7.11426 3.13802 7.11426 3.34961C7.11426 3.56445 7.04102 3.74023 6.89453 3.87695C6.7513 4.01367 6.56087 4.08203 6.32324 4.08203C6.08561 4.08203 5.89355 4.01367 5.74707 3.87695C5.60384 3.74023 5.53223 3.56445 5.53223 3.34961Z" fill="white"/>
</svg>
